<?xml version="1.0" encoding="UTF-8" standalone="no"?>
<svg
   xmlns:dc="http://purl.org/dc/elements/1.1/"
   xmlns:cc="http://creativecommons.org/ns#"
   xmlns:rdf="http://www.w3.org/1999/02/22-rdf-syntax-ns#"
   xmlns:svg="http://www.w3.org/2000/svg"
   xmlns="http://www.w3.org/2000/svg"
   xmlns:xlink="http://www.w3.org/1999/xlink"
   xmlns:sodipodi="http://sodipodi.sourceforge.net/DTD/sodipodi-0.dtd"
   xmlns:inkscape="http://www.inkscape.org/namespaces/inkscape"
   version="1.0"
   width="266pt"
   height="266pt"
   viewBox="0 0 266 266"
   preserveAspectRatio="xMidYMid meet"
   id="svg8"
   sodipodi:docname="nest.svg"
   inkscape:version="0.92.2 5c3e80d, 2017-08-06"
   inkscape:export-filename="/home/loki/go/src/gitlab.com/clbr/nest/assets/nest-logo.png"
   inkscape:export-xdpi="852.70001"
   inkscape:export-ydpi="852.70001">
  <defs
     id="defs12">
    <filter
       inkscape:collect="always"
       style="color-interpolation-filters:sRGB"
       id="filter1102"
       x="-0.039892849"
       width="1.0797857"
       y="-0.050055321"
       height="1.1001107">
      <feGaussianBlur
         inkscape:collect="always"
         stdDeviation="2.8235071"
         id="feGaussianBlur1104" />
    </filter>
    <radialGradient
       inkscape:collect="always"
       xlink:href="#linearGradient4656"
       id="radialGradient4658"
       cx="89.523674"
       cy="175.0977"
       fx="89.523674"
       fy="175.0977"
       r="84.932724"
       gradientTransform="matrix(0.16228373,0,0,0.1293361,164.21229,-330.47982)"
       gradientUnits="userSpaceOnUse" />
    <linearGradient
       inkscape:collect="always"
       id="linearGradient4656">
      <stop
         style="stop-color:#02f802;stop-opacity:1;"
         offset="0"
         id="stop4652" />
      <stop
         style="stop-color:#02f802;stop-opacity:0;"
         offset="1"
         id="stop4654" />
    </linearGradient>
  </defs>
  <sodipodi:namedview
     pagecolor="#ffffff"
     bordercolor="#666666"
     borderopacity="1"
     objecttolerance="10"
     gridtolerance="10"
     guidetolerance="10"
     inkscape:pageopacity="0"
     inkscape:pageshadow="2"
     inkscape:window-width="3840"
     inkscape:window-height="2010"
     id="namedview10"
     showgrid="false"
     fit-margin-top="0"
     fit-margin-left="0"
     fit-margin-right="0"
     fit-margin-bottom="0"
     inkscape:zoom="1.0657895"
     inkscape:cx="23.925926"
     inkscape:cy="63.333332"
     inkscape:window-x="0"
     inkscape:window-y="29"
     inkscape:window-maximized="1"
     inkscape:current-layer="svg8" />
  <metadata
     id="metadata2">
Created by potrace 1.15, written by Peter Selinger 2001-2017
<rdf:RDF>
  <cc:Work
     rdf:about="">
    <dc:format>image/svg+xml</dc:format>
    <dc:type
       rdf:resource="http://purl.org/dc/dcmitype/StillImage" />
    <dc:title />
  </cc:Work>
</rdf:RDF>
</metadata>
  <g
     id="g1433"
     transform="matrix(5.144033,0,0,5.144033,-786.44827,1709.4468)">
    <path
       sodipodi:nodetypes="sssss"
       inkscape:connector-curvature="0"
       id="path1106"
       d="m 196.74074,-305.71727 c 0,9.94114 -8.05887,18.00001 -18,18.00001 -9.94112,0 -18,-8.05887 -18,-18.00001 0,-9.94113 8.05888,-25.23214 18,-25.23214 9.94113,0 18,15.29101 18,25.23214 z"
       style="opacity:1;vector-effect:none;fill:#2f3136;fill-opacity:1;stroke:none;stroke-width:3.59417057;stroke-linecap:round;stroke-linejoin:round;stroke-miterlimit:4;stroke-dasharray:none;stroke-dashoffset:0;stroke-opacity:1" />
    <path
       transform="matrix(0.16228372,0,0,0.16228372,165.93,-337.96636)"
       inkscape:export-ydpi="192.92"
       inkscape:export-xdpi="192.92"
       inkscape:connector-curvature="0"
       id="path4514-3"
       d="m 123.31526,118.01389 c -17.02206,0.54194 -28.664284,14.03176 -35.111323,28.72656 -3.16272,7.20881 -5.378982,15.12943 -6.667971,23.3164 -4.20725,-16.34882 -12.645948,-31.65168 -27.105467,-40.16015 -15.077085,-8.87187 -35.960154,-7.3822 -55.37304534,6.78125 A 11.925182,11.925182 0 1 0 13.112141,155.94357 c 14.356922,-10.47466 22.239743,-9.60117 29.222656,-5.49219 5.411817,3.1845 10.591414,10.17334 14.044922,19.00977 -26.216806,1.61776 -45.748139,15.64585 -54.3652343,32.625 -5.491951,10.82135 -6.997347,23.47042 -1.25390704,34.33008 5.74344104,10.85965 18.70604834,17.279 33.68554534,16.9414 20.993987,-0.47314 36.763034,-13.47653 43.957034,-29.45312 2.023668,-4.4942 3.471849,-9.21595 4.494138,-14.04297 2.906012,11.88106 8.451321,22.86374 18.189455,30.57422 13.46435,10.66083 33.83709,11.79511 55.83984,1.28711 a 11.925182,11.925182 0 1 0 -10.27735,-21.51953 c -17.00709,8.12219 -24.97905,6.11222 -30.75976,1.53515 -5.28105,-4.18144 -9.4531,-13.37878 -11.01366,-24.69531 27.89417,-1.23544 46.36219,-13.64203 53.32029,-30.3086 4.61312,-11.04965 3.84325,-23.56326 -2.5664,-33.30272 -6.40966,-9.73947 -18.53684,-15.85662 -32.31445,-15.41797 z m 0.75977,23.83593 c 7.02871,-0.22378 9.88041,2.02863 11.63281,4.69141 1.75239,2.66277 2.32851,6.58395 0.48242,11.00585 -2.70308,6.47461 -11.42907,14.79364 -30.91601,15.79493 1.01247,-6.21806 2.62301,-12.1314 4.76757,-17.01953 4.47401,-10.19763 9.7329,-14.33574 14.03321,-14.47266 z m -63.562498,51.34766 c -0.05236,7.70428 -1.252472,15.13327 -3.855469,20.91406 -4.36799,9.70053 -10.26787,15.12303 -22.748047,15.4043 -8.95519,0.20182 -10.937986,-2.11639 -12.066407,-4.25 -1.128422,-2.13362 -1.432343,-6.73198 1.437499,-12.38672 4.718159,-9.29667 16.979617,-19.51459 37.232424,-19.68164 z"
       style="color:#000000;font-style:normal;font-variant:normal;font-weight:normal;font-stretch:normal;font-size:medium;line-height:normal;font-family:sans-serif;font-variant-ligatures:normal;font-variant-position:normal;font-variant-caps:normal;font-variant-numeric:normal;font-variant-alternates:normal;font-feature-settings:normal;text-indent:0;text-align:start;text-decoration:none;text-decoration-line:none;text-decoration-style:solid;text-decoration-color:#000000;letter-spacing:normal;word-spacing:normal;text-transform:none;writing-mode:lr-tb;direction:ltr;text-orientation:mixed;dominant-baseline:auto;baseline-shift:baseline;text-anchor:start;white-space:normal;shape-padding:0;clip-rule:nonzero;display:inline;overflow:visible;visibility:visible;opacity:1;isolation:auto;mix-blend-mode:normal;color-interpolation:sRGB;color-interpolation-filters:linearRGB;solid-color:#000000;solid-opacity:1;vector-effect:none;fill:#208f20;fill-opacity:1;fill-rule:nonzero;stroke:none;stroke-width:23.84797859;stroke-linecap:round;stroke-linejoin:round;stroke-miterlimit:4;stroke-dasharray:none;stroke-dashoffset:0;stroke-opacity:1;filter:url(#filter1102);color-rendering:auto;image-rendering:auto;shape-rendering:auto;text-rendering:auto;enable-background:accumulate" />
    <path
       inkscape:export-ydpi="192.92"
       inkscape:export-xdpi="192.92"
       inkscape:connector-curvature="0"
       id="path4514"
       d="m 185.94183,-318.81466 c -2.76241,0.0879 -4.65175,2.27713 -5.698,4.66186 -0.51326,1.16988 -0.87292,2.45525 -1.0821,3.78388 -0.68277,-2.65314 -2.05224,-5.13655 -4.39878,-6.51736 -2.44676,-1.43974 -5.83575,-1.19801 -8.98614,1.10049 a 1.9352631,1.9352631 0 1 0 2.28084,3.12651 c 2.3299,-1.69988 3.60915,-1.55812 4.74236,-0.8913 0.87825,0.51678 1.71882,1.65098 2.27927,3.08497 -4.25456,0.26249 -7.42418,2.53908 -8.82259,5.29452 -0.89126,1.75612 -1.13556,3.80886 -0.2035,5.57122 0.93206,1.76232 3.03568,2.80409 5.46661,2.74929 3.40699,-0.0768 5.96604,-2.18701 7.13351,-4.77975 0.32841,-0.72933 0.56343,-1.49559 0.72933,-2.27894 0.4716,1.9281 1.37151,3.71041 2.95185,4.96171 2.18505,1.73007 5.49121,1.91415 9.0619,0.20891 a 1.9352631,1.9352631 0 1 0 -1.66785,-3.49226 c -2.75997,1.31809 -4.05369,0.9919 -4.9918,0.24917 -0.85703,-0.67859 -1.53409,-2.17117 -1.78734,-4.00765 4.52677,-0.20041 7.52383,-2.21389 8.65301,-4.91859 0.74864,-1.7932 0.6237,-3.82394 -0.41648,-5.40451 -1.04019,-1.58054 -3.00823,-2.57326 -5.24411,-2.50209 z m 0.1233,3.86818 c 1.14065,-0.0363 1.60343,0.32922 1.88782,0.76136 0.28439,0.43212 0.37788,1.06847 0.0783,1.78606 -0.43866,1.05071 -1.85475,2.40077 -5.01716,2.56325 0.16429,-1.00907 0.42567,-1.96871 0.7737,-2.76199 0.72605,-1.6549 1.57949,-2.32645 2.27736,-2.34868 z m -10.31516,8.3329 c -0.008,1.25028 -0.20324,2.45588 -0.62568,3.39401 -0.70885,1.57425 -1.6663,2.45423 -3.69164,2.49987 -1.45328,0.0326 -1.77505,-0.34345 -1.95817,-0.6897 -0.18312,-0.34625 -0.23244,-1.0925 0.23329,-2.01016 0.76567,-1.50871 2.75551,-3.16692 6.04221,-3.19402 z"
       style="color:#000000;font-style:normal;font-variant:normal;font-weight:normal;font-stretch:normal;font-size:medium;line-height:normal;font-family:sans-serif;font-variant-ligatures:normal;font-variant-position:normal;font-variant-caps:normal;font-variant-numeric:normal;font-variant-alternates:normal;font-feature-settings:normal;text-indent:0;text-align:start;text-decoration:none;text-decoration-line:none;text-decoration-style:solid;text-decoration-color:#000000;letter-spacing:normal;word-spacing:normal;text-transform:none;writing-mode:lr-tb;direction:ltr;text-orientation:mixed;dominant-baseline:auto;baseline-shift:baseline;text-anchor:start;white-space:normal;shape-padding:0;clip-rule:nonzero;display:inline;overflow:visible;visibility:visible;opacity:1;isolation:auto;mix-blend-mode:normal;color-interpolation:sRGB;color-interpolation-filters:linearRGB;solid-color:#000000;solid-opacity:1;vector-effect:none;fill:#208f20;fill-opacity:1;fill-rule:nonzero;stroke:none;stroke-width:3.87013912;stroke-linecap:round;stroke-linejoin:round;stroke-miterlimit:4;stroke-dasharray:none;stroke-dashoffset:0;stroke-opacity:1;color-rendering:auto;image-rendering:auto;shape-rendering:auto;text-rendering:auto;enable-background:accumulate" />
    <path
       inkscape:export-ydpi="192.92"
       inkscape:export-xdpi="192.92"
       inkscape:connector-curvature="0"
       id="path4514-9"
       d="m 185.94185,-318.81466 c -2.76241,0.0879 -4.65175,2.27713 -5.698,4.66186 -0.51326,1.16988 -0.87292,2.45525 -1.08211,3.78388 -0.68276,-2.65314 -2.05223,-5.13655 -4.39877,-6.51736 -2.44677,-1.43974 -5.83575,-1.19801 -8.98615,1.10049 a 1.9352631,1.9352631 0 1 0 2.28085,3.12651 c 2.3299,-1.69988 3.60915,-1.55812 4.74236,-0.8913 0.87825,0.51678 1.71882,1.65098 2.27926,3.08497 -4.25456,0.26249 -7.42417,2.53908 -8.82259,5.29452 -0.89125,1.75612 -1.13555,3.80886 -0.2035,5.57122 0.93207,1.76232 3.03569,2.80409 5.46662,2.74929 3.40698,-0.0768 5.96604,-2.18701 7.13351,-4.77975 0.32841,-0.72933 0.56343,-1.49559 0.72933,-2.27894 0.4716,1.9281 1.37151,3.71041 2.95185,4.96171 2.18505,1.73007 5.49121,1.91415 9.0619,0.20891 a 1.9352631,1.9352631 0 1 0 -1.66785,-3.49226 c -2.75997,1.31809 -4.05369,0.9919 -4.9918,0.24917 -0.85703,-0.67859 -1.53409,-2.17117 -1.78734,-4.00765 4.52677,-0.20041 7.52383,-2.21389 8.65302,-4.91859 0.74863,-1.7932 0.62369,-3.82394 -0.41649,-5.40451 -1.04019,-1.58054 -3.00823,-2.57326 -5.24411,-2.50209 z m 0.12331,3.86818 c 1.14063,-0.0363 1.60342,0.32922 1.88781,0.76136 0.28439,0.43212 0.37788,1.06847 0.0783,1.78606 -0.43866,1.05071 -1.85475,2.40077 -5.01717,2.56325 0.1643,-1.00907 0.42568,-1.96871 0.7737,-2.76199 0.72607,-1.6549 1.5795,-2.32645 2.27737,-2.34868 z m -10.31517,8.3329 c -0.008,1.25028 -0.20324,2.45588 -0.62568,3.39401 -0.70885,1.57425 -1.66631,2.45423 -3.69164,2.49987 -1.45328,0.0326 -1.77505,-0.34345 -1.95818,-0.6897 -0.18311,-0.34625 -0.23244,-1.0925 0.23329,-2.01016 0.76569,-1.50871 2.75552,-3.16692 6.04222,-3.19402 z"
       style="color:#000000;font-style:normal;font-variant:normal;font-weight:normal;font-stretch:normal;font-size:medium;line-height:normal;font-family:sans-serif;font-variant-ligatures:normal;font-variant-position:normal;font-variant-caps:normal;font-variant-numeric:normal;font-variant-alternates:normal;font-feature-settings:normal;text-indent:0;text-align:start;text-decoration:none;text-decoration-line:none;text-decoration-style:solid;text-decoration-color:#000000;letter-spacing:normal;word-spacing:normal;text-transform:none;writing-mode:lr-tb;direction:ltr;text-orientation:mixed;dominant-baseline:auto;baseline-shift:baseline;text-anchor:start;white-space:normal;shape-padding:0;clip-rule:nonzero;display:inline;overflow:visible;visibility:visible;opacity:1;isolation:auto;mix-blend-mode:normal;color-interpolation:sRGB;color-interpolation-filters:linearRGB;solid-color:#000000;solid-opacity:1;vector-effect:none;fill:url(#radialGradient4658);fill-opacity:1;fill-rule:nonzero;stroke:none;stroke-width:3.87013912;stroke-linecap:round;stroke-linejoin:round;stroke-miterlimit:4;stroke-dasharray:none;stroke-dashoffset:0;stroke-opacity:1;color-rendering:auto;image-rendering:auto;shape-rendering:auto;text-rendering:auto;enable-background:accumulate" />
  </g>
  <g
     transform="matrix(0.1,0,0,-0.1,0,260.87037)"
     id="g6"
     style="fill:#edd400;stroke:none">
    <path
       d="m 50,947 c 0,-38 34,-118 65,-154 19,-23 35,-44 35,-47 0,-3 -12,-4 -27,-1 -16,2 -49,6 -75,9 L 0,760 V 645 531 l 38,-6 c 96,-16 139,-27 208,-56 41,-17 74,-34 74,-38 0,-3 -36,-5 -80,-3 l -80,4 v -71 -71 h 58 c 108,0 303,-60 452,-138 95,-51 219,-94 351,-124 90,-20 131,-23 309,-23 178,0 219,3 309,23 132,30 256,73 351,124 149,78 344,138 453,138 h 57 v 71 71 l -80,-4 c -44,-2 -80,0 -80,3 0,4 33,21 74,38 69,29 112,40 209,56 l 37,6 v 114 115 l -47,-6 c -27,-3 -60,-7 -75,-9 -16,-3 -28,-2 -28,1 0,3 16,24 34,46 34,39 66,113 66,150 0,16 -10,18 -111,18 h -112 l -38,-35 c -70,-63 -211,-118 -406,-159 -208,-43 -301,-51 -613,-51 -312,0 -405,8 -613,51 -195,41 -336,96 -406,159 l -38,35 H 161 C 76,960 50,957 50,947 Z"
       id="path4"
       style="fill:#edd400"
       inkscape:connector-curvature="0" />
  </g>
</svg>
